<?xml version="1.0" encoding="utf-8"?>
<!-- Generator: Adobe Illustrator 16.0.0, SVG Export Plug-In . SVG Version: 6.00 Build 0)  -->
<!DOCTYPE svg PUBLIC "-//W3C//DTD SVG 1.1//EN" "http://www.w3.org/Graphics/SVG/1.1/DTD/svg11.dtd">
<svg version="1.1" id="Layer_1" xmlns="http://www.w3.org/2000/svg" xmlns:xlink="http://www.w3.org/1999/xlink" x="0px" y="0px"
	 width="595.281px" height="841.891px" viewBox="0 0 595.281 841.891" enable-background="new 0 0 595.281 841.891"
	 xml:space="preserve">
<g>
	<g>
		<polygon fill="#FBAC30" points="368.525,642.851 0.368,420.945 368.525,199.039 		"/>
		<polygon fill="#12B17D" points="368.525,642.851 279.053,563.851 368.525,523.279 		"/>
		<polygon fill="#12B17D" points="279.053,278.039 368.525,199.039 368.525,318.612 		"/>
		<polygon fill="#BB255C" points="594.912,420.945 279.053,563.851 279.053,278.039 		"/>
	</g>
	<g>
		<path d="M148.413,429.185h-19.041l9.524-32.866L148.413,429.185z M192.698,468.011l-35.489-101.974h-36.641l-35.49,101.974h33.038
			l3.462-11.921h34.62l3.462,11.921H192.698z"/>
		<polygon points="242.248,468.011 277.737,366.047 244.699,366.047 223.927,434.683 203.155,366.047 170.117,366.047 
			205.606,468.011 		"/>
		<polygon fill="#FFFFFF" points="360.238,468.011 360.238,429.945 403.083,429.945 403.083,403.04 360.238,403.04 360.238,392.951 
			404.093,392.951 404.093,366.047 331.093,366.047 331.093,468.011 		"/>
		<rect x="288.5" y="366.047" fill="#FFFFFF" width="29.137" height="101.973"/>
	</g>
</g>
<path fill="none" d="M563.14,573.445c-15.284-8.244-36.24-4.125-53.08-6.197c-25.918-3.189-50.468-4.056-76.493-3.019
	c-55.69,2.222-114.742,17.065-166.9,36.415c-59.792,22.183-118.167,47.276-155.792,101.071
	c-10.772,15.401-24.171,32.423-25.554,51.849c-0.759,10.671,3.705,32.891,14.819,36.881"/>
</svg>
